<svg xmlns="http://www.w3.org/2000/svg" viewBox="0 0 314.464 315.556">
  <path d="M139.863 314.976c-47.754-6.047-87.723-30.432-113.864-69.468C12.287 225.032 3.834 202.562.68 178.211L0 172.96h93.231l1.094 2.75c.601 1.512 3.14 7.02 5.64 12.238 12.627 26.354 41.724 40.47 70.97 34.43 21.586-4.46 40.247-20.556 47.896-41.315 3.243-8.802-1.038-8.103 49.658-8.103h44.992l-.617 7.25c-1.355 15.936-9.052 39.163-18.307 55.25-12.884 22.395-33.957 44.097-55.87 57.536-15.55 9.538-35.019 16.99-53.5 20.48-9.99 1.887-35.578 2.733-45.324 1.499zM1.438 146.299c-2.944-1.188.05-21.218 5.749-38.45C28.66 42.913 88.345 0 157.187 0c50.52 0 96.456 23.12 126.851 63.846 15.843 21.227 27.148 49.876 29.74 75.365l.686 6.75h-92.898l-1.308-5.103c-2.641-10.306-7.853-18.877-16.974-27.916-13.9-13.774-26.825-19.388-44.596-19.368-12.097.013-19.924 1.89-31.442 7.536-14.66 7.186-25.061 19.538-31.575 37.494-1.337 3.69-3.006 7.072-3.708 7.517-1.357.861-88.408 1.032-90.525.178z"/>
  <path d="M143.675 201.218c-12.148-4.336-21.402-12.635-26.802-24.034-3.006-6.344-3.185-7.37-3.185-18.223 0-10.792.19-11.9 3.097-18 18.344-38.495 73.613-32.603 83.399 8.891 4.764 20.204-7.235 42.549-26.996 50.273-7.712 3.014-22.589 3.565-29.513 1.093z"/>
</svg>